<svg xmlns="http://www.w3.org/2000/svg" width="47.473" height="53.097" viewBox="0 0 47.473 53.097"><g transform="translate(-624 -913.709)"><path d="M3.383,53.1a2.506,2.506,0,0,0-.733-.247A3.962,3.962,0,0,1,0,48.911q0-8.8,0-17.6Q0,17.74,0,4.166A3.979,3.979,0,0,1,1.854.556,3.958,3.958,0,0,1,4.082,0Q15.216.022,26.351.021c1.35,0,2.7.026,4.049-.011a3.8,3.8,0,0,1,3.8,3.73c-.026.6.026,1.212-.007,1.816-.027.491.13.653.64.65,3.011-.021,6.021-.009,9.032-.007.831,0,1.661,0,2.492,0s1.062.22,1.091,1.026c.024.657.026,1.315.027,1.972q0,9.577,0,19.154c0,.861-.279,1.134-1.158,1.134H34.947c-.745,0-.748,0-.748.735,0,6.281-.022,12.562.012,18.843a3.961,3.961,0,0,1-2.528,3.747c-.292.1-.59.191-.885.285ZM1.485,26.45q0,11.215,0,22.43a2.423,2.423,0,0,0,2.7,2.693H29.936c1.923,0,2.772-.851,2.776-2.788q.012-5.27.022-10.54c0-2.752-.012-5.5-.022-8.255,0-.165.061-.415-.137-.458a2.422,2.422,0,0,0-1.33.012c-.3.109-.158.494-.159.753q-.011,6.127,0,12.253c0,.954-.2,1.156-1.158,1.156l-25.545,0c-1.038,0-1.261-.229-1.261-1.293q0-5.841,0-11.682c0-.744.268-1.155.752-1.165s.736.366.736,1.146q0,5.374,0,10.748c0,.762,0,.767.772.767q11.786,0,23.572.012c.539,0,.665-.17.662-.68q-.029-5.737,0-11.475c0-.474-.117-.615-.6-.613-4.881.017-9.761.011-14.642.009-.843,0-1.09-.244-1.09-1.074q0-10.514,0-21.028c0-.981.2-1.185,1.186-1.185q7.087,0,14.175,0c.959,0,.959,0,.963-.96,0-.678,0-.678-.67-.678H5.565c-1.068,0-.961-.093-.961.93q0,10.566,0,21.132a4.218,4.218,0,0,1-.022.673.684.684,0,0,1-.628.6.665.665,0,0,1-.733-.455,1.829,1.829,0,0,1-.1-.766q0-11.189,0-22.378c0-1,.224-1.221,1.216-1.221H29.769c.173,0,.347-.007.519.006a.756.756,0,0,1,.786.789c.018.38,0,.761.01,1.142.031,1.374-.222,1.151,1.235,1.186.283.007.4-.085.393-.388-.018-.727.016-1.454-.009-2.18a2.168,2.168,0,0,0-1.057-1.805,2.861,2.861,0,0,0-1.638-.389q-12.877.007-25.753,0A2.454,2.454,0,0,0,1.485,4.228q0,11.111,0,22.222M30.354,7.678v0H15.348c-.589,0-.7.144-.512.72a2.492,2.492,0,0,0,.885,1.249q6.5,4.953,13,9.913a2.437,2.437,0,0,0,3.239.018q6.51-4.946,13.008-9.91a2.41,2.41,0,0,0,.892-1.243c.2-.669.146-.743-.556-.743q-7.477,0-14.954,0m.03,20.328q7.293,0,14.587-.006c.316,0,.767.172.922-.121.185-.349-.038-.773-.246-1.115a2.368,2.368,0,0,0-.46-.556c-.352-.305-.728-.584-1.1-.867q-4.127-3.146-8.252-6.294a.515.515,0,0,0-.76,0c-.726.587-1.481,1.139-2.223,1.705a3.847,3.847,0,0,1-4.975,0c-.755-.579-1.522-1.142-2.27-1.73a.465.465,0,0,0-.676,0Q20.3,22.57,15.651,26.1a2.182,2.182,0,0,0-.806,1.235c-.154.609-.122.666.485.666H30.384m15.6-10.193q0-2.074,0-4.148c0-.761,0-1.521-.005-2.282,0-.147.053-.34-.119-.42s-.28.095-.4.176c-.186.124-.358.271-.537.407q-3.9,2.971-7.792,5.94c-.258.2-.485.35-.085.653q4.194,3.177,8.377,6.368c.129.1.261.3.441.2.2-.1.118-.341.118-.52q.008-3.189,0-6.378m-31.219.045h-.012q0,3.269,0,6.539c0,.126-.075.3.1.365.131.049.214-.087.307-.157q4.233-3.219,8.466-6.438c.3-.229.375-.366.012-.639-2.8-2.114-5.588-4.25-8.38-6.377-.119-.09-.235-.269-.394-.2-.2.09-.1.31-.1.469q-.009,3.217,0,6.435" transform="translate(624 913.709)" fill="#979797"/><path d="M89.831,331.419c-.985,0-1.969.007-2.954,0a2.3,2.3,0,1,1-.022-4.591q3.032-.015,6.063,0a2.3,2.3,0,1,1,.022,4.586c-1.036.011-2.073,0-3.109,0m.044-1.481v0c.986,0,1.971,0,2.957,0,.609,0,1-.327,1-.816s-.391-.817-1-.818q-2.931-.007-5.861,0c-.65,0-.97.281-.981.815-.01.518.325.806.978.812.968.008,1.937,0,2.9,0" transform="translate(551.217 632.23)" fill="#979797"/></g></svg>