<svg xmlns="http://www.w3.org/2000/svg" xmlns:xlink="http://www.w3.org/1999/xlink" width="53.095" height="53.081" viewBox="0 0 53.095 53.081"><defs><clipPath id="a"><rect width="53.095" height="53.081" fill="#979797"/></clipPath></defs><g transform="translate(-1062 -970)"><g transform="translate(1062 970)"><g clip-path="url(#a)"><path d="M0,103.492c.254-.28.253-.668.429-.988a3.46,3.46,0,0,1,4.525-1.557.646.646,0,0,0,.879-.173c.84-.87,1.706-1.717,2.562-2.572.238-.238.487-.455.862-.349a.742.742,0,0,1,.269,1.314c-.844.868-1.695,1.729-2.571,2.563a.763.763,0,0,0-.218,1.05,3.453,3.453,0,0,1-2.064,4.631,1.773,1.773,0,0,0-.627.231H2.905c-.053-.041-.1-.1-.158-.12a3.49,3.49,0,0,1-2.574-2.486c-.033-.108-.038-.245-.172-.3Zm5.529.642a2,2,0,1,0-1.985,1.984,2.016,2.016,0,0,0,1.985-1.984" transform="translate(0 -54.562)" fill="#979797"/><path d="M103.588,107.653c-.055-.1-.158-.115-.258-.147a3.478,3.478,0,0,1-2.229-4.948.469.469,0,0,0-.116-.626c-.915-.894-1.814-1.8-2.719-2.707a.794.794,0,0,1-.3-.872.742.742,0,0,1,1.3-.224c.867.843,1.729,1.694,2.566,2.567a.771.771,0,0,0,1.045.237,3.448,3.448,0,0,1,4.622,1.993,3.486,3.486,0,0,1-2.285,4.542,1.059,1.059,0,0,0-.478.184Zm.605-5.53a2,2,0,1,0,2.018,1.995,2.006,2.006,0,0,0-2.018-1.995" transform="translate(-54.615 -54.572)" fill="#979797"/><path d="M0,2.867c.26-.314.277-.732.475-1.08A3.521,3.521,0,0,1,5.105.383,3.456,3.456,0,0,1,6.7,4.928a.607.607,0,0,0,.157.836c.885.85,1.743,1.727,2.609,2.6.282.283.49.6.264,1.013a.737.737,0,0,1-1.257.1Q7.079,8.111,5.716,6.724A.472.472,0,0,0,5.09,6.6,3.439,3.439,0,0,1,.19,4.463C.147,4.341.15,4.182,0,4.112Zm3.519-1.38a2.021,2.021,0,0,0-2,2.022A2.034,2.034,0,0,0,3.562,5.5,2.036,2.036,0,0,0,5.529,3.49a1.994,1.994,0,0,0-2.01-2" transform="translate(0 -0.005)" fill="#979797"/><path d="M31.633,54.06c-1.228,0-2.455.011-3.683,0a1.856,1.856,0,0,1-2.058-2.1c0-.709-.009-1.418.014-2.127a.627.627,0,0,0-.478-.69c-.551-.2-1.1-.422-1.626-.674a.623.623,0,0,0-.828.137c-.512.539-1.04,1.064-1.573,1.581a1.8,1.8,0,0,1-2.853-.015q-2.7-2.693-5.391-5.393a1.789,1.789,0,0,1-.017-2.814c.51-.517,1.019-1.036,1.545-1.536a.665.665,0,0,0,.177-.907,14.161,14.161,0,0,1-.667-1.628.574.574,0,0,0-.615-.433c-.778.006-1.556.011-2.334-.008a1.861,1.861,0,0,1-1.991-2.026q-.01-3.787,0-7.574a1.871,1.871,0,0,1,2.012-2.056c.726-.014,1.453-.023,2.179-.008a.678.678,0,0,0,.791-.548,8.015,8.015,0,0,1,.613-1.481.683.683,0,0,0-.177-.949c-.532-.493-1.035-1.019-1.543-1.538a1.8,1.8,0,0,1,.03-2.816q2.7-2.694,5.393-5.391a1.8,1.8,0,0,1,2.85-.008c.519.508,1.038,1.017,1.538,1.543a.655.655,0,0,0,.87.167c.544-.26,1.111-.472,1.675-.689a.5.5,0,0,0,.382-.532c-.011-.777.007-1.556.016-2.334A1.867,1.867,0,0,1,27.9,9.164c.587-.01,1.177-.009,1.763.027.54.032.805.316.793.766s-.294.682-.851.7c-.5.013-1,0-1.5.009-.654.014-.718.077-.725.716-.008.709,0,1.418-.008,2.127a1.865,1.865,0,0,1-1.409,1.987c-.548.208-1.089.438-1.627.671a1.833,1.833,0,0,1-2.352-.43c-.541-.535-1.087-1.066-1.614-1.614-.278-.288-.5-.28-.782,0q-2.668,2.687-5.357,5.354c-.308.305-.277.536.021.822.562.537,1.109,1.092,1.65,1.651a1.771,1.771,0,0,1,.4,2.22c-.261.6-.517,1.206-.756,1.816a1.847,1.847,0,0,1-1.868,1.287c-.761,0-1.522.011-2.282,0-.422,0-.635.151-.633.605q.014,3.735,0,7.47c0,.473.22.637.669.628.743-.015,1.487-.006,2.231,0A1.786,1.786,0,0,1,15.545,37.3c.253.624.517,1.243.783,1.861a1.7,1.7,0,0,1-.389,2.083c-.555.569-1.114,1.135-1.686,1.689-.287.279-.347.517-.034.827q2.706,2.685,5.394,5.39c.267.268.483.251.742-.017.541-.559,1.1-1.1,1.655-1.646a1.768,1.768,0,0,1,2.3-.4c.586.256,1.179.494,1.775.723a1.786,1.786,0,0,1,1.274,1.761c.012.812.024,1.625.02,2.438,0,.418.188.582.6.581q3.735-.009,7.47.006c.477,0,.64-.215.628-.667-.018-.726-.013-1.452-.007-2.179a1.853,1.853,0,0,1,1.359-1.969c.594-.234,1.184-.48,1.772-.73a1.794,1.794,0,0,1,2.216.421c.556.544,1.111,1.09,1.65,1.65a.465.465,0,0,0,.783.011q2.687-2.7,5.392-5.39a.448.448,0,0,0,0-.745c-.543-.533-1.074-1.077-1.609-1.618a1.842,1.842,0,0,1-.441-2.39c.251-.588.492-1.179.731-1.772a1.778,1.778,0,0,1,1.784-1.239c.778.005,1.556-.008,2.334,0,.458.008.65-.18.648-.648q-.017-3.71,0-7.418c0-.464-.175-.663-.638-.656q-1.167.019-2.334,0a1.778,1.778,0,0,1-1.812-1.275c-.247-.626-.491-1.255-.771-1.866a1.77,1.77,0,0,1,.371-2.137q.848-.876,1.726-1.721a.441.441,0,0,0,.012-.741q-2.719-2.708-5.426-5.428c-.265-.267-.488-.246-.746.02-.553.572-1.12,1.13-1.689,1.686a1.8,1.8,0,0,1-2.178.406c-.618-.266-1.24-.524-1.868-.768a1.8,1.8,0,0,1-1.265-1.772c-.014-.8-.022-1.591-.008-2.386.007-.441-.176-.628-.615-.619-.657.013-1.314.008-1.971,0-.524-.01-.821-.282-.827-.724a.722.722,0,0,1,.759-.754,20.616,20.616,0,0,1,2.435.015,1.751,1.751,0,0,1,1.7,1.864q.03,1.166.007,2.334a.654.654,0,0,0,.5.731c.554.191,1.1.422,1.63.666a.6.6,0,0,0,.783-.146c.538-.562,1.093-1.108,1.65-1.651a1.764,1.764,0,0,1,2.7,0q2.779,2.76,5.537,5.541a1.742,1.742,0,0,1,0,2.7c-.542.558-1.088,1.113-1.649,1.652a.615.615,0,0,0-.146.788c.247.551.49,1.106.692,1.674a.6.6,0,0,0,.657.45q1.115-.009,2.23.005a1.823,1.823,0,0,1,2.026,2.017q.019,3.709.021,7.418c0,1.538-.688,2.219-2.216,2.225-.674,0-1.349.012-2.023,0a.646.646,0,0,0-.724.506,12.738,12.738,0,0,1-.629,1.532.689.689,0,0,0,.152.921c.541.509,1.061,1.042,1.58,1.574a1.757,1.757,0,0,1-.018,2.77q-2.724,2.741-5.461,5.468a1.769,1.769,0,0,1-2.737,0c-.545-.531-1.091-1.062-1.613-1.614a.642.642,0,0,0-.87-.142,9.673,9.673,0,0,1-1.483.612.752.752,0,0,0-.594.878c.027.674.026,1.349.013,2.023a1.9,1.9,0,0,1-2.139,2.095c-.64,0-1.28-.011-1.919-.014-.623,0-1.245,0-1.868,0Z" transform="translate(-5.159 -5.101)" fill="#979797"/><path d="M56.745,44.035a12.4,12.4,0,0,1-3.219,8.36c-.444.5-.99.5-1.3.013-.262-.41-.059-.708.21-1.013a11.208,11.208,0,1,0-3.144,2.455c.122-.065.243-.134.37-.188a.739.739,0,0,1,1.016.326.679.679,0,0,1-.325.966,11.2,11.2,0,0,1-2.409,1.072,12.68,12.68,0,1,1,8.626-14.315,13.563,13.563,0,0,1,.174,2.323" transform="translate(-17.519 -17.439)" fill="#979797"/><path d="M104.207,0a3.519,3.519,0,0,1,3.261,2.232A3.484,3.484,0,0,1,106.625,6a3.394,3.394,0,0,1-3.833.661.638.638,0,0,0-.88.167c-.865.894-1.752,1.767-2.639,2.639A.749.749,0,0,1,98.1,9.5c-.3-.349-.253-.708.17-1.134.851-.859,1.7-1.723,2.569-2.562a.686.686,0,0,0,.191-.924A3.456,3.456,0,0,1,104.207,0m0,1.483a2.023,2.023,0,0,0-2.009,2.01A2,2,0,0,0,106.2,3.5a2,2,0,0,0-2-2.016" transform="translate(-54.606 0)" fill="#979797"/><path d="M52.638,54.361c0-1.141,0-2.281,0-3.421,0-.731.27-1,1-1,.588,0,1.175-.007,1.762,0a2.775,2.775,0,0,1,2.66,2.069,2.6,2.6,0,0,1-1.667,3.033c-.45.176-.429.32-.145.628.527.571,1.036,1.159,1.547,1.745.406.467.428.859.079,1.181s-.766.256-1.195-.227c-.711-.8-1.417-1.607-2.13-2.4-.085-.1-.159-.268-.321-.209s-.1.241-.1.367c-.009.6,0,1.21-.005,1.814-.007.523-.276.841-.7.855a.781.781,0,0,1-.773-.856c-.012-1.192,0-2.385-.005-3.577m1.494-1.778c.042,1.353-.245,1.218,1.266,1.182a1.166,1.166,0,1,0-.032-2.326c-1.521-.023-1.2-.159-1.234,1.144" transform="translate(-29.358 -27.853)" fill="#979797"/><path d="M67.4,54.378c0-1.157-.005-2.315,0-3.472,0-.694.284-.96.982-.963.622,0,1.244-.006,1.865,0a2.819,2.819,0,0,1,.041,5.638c-.31.007-.623.023-.932,0-.37-.023-.48.142-.47.491.019.621.009,1.244,0,1.865-.006.532-.3.86-.758.852a.775.775,0,0,1-.729-.841c-.01-1.192,0-2.384,0-3.576M68.9,52.752c0,1.382,0,1.382,1.3,1.342a1.326,1.326,0,0,0,1.362-1.371c-.013-.917-.628-1.3-2.061-1.294-.6,0-.6,0-.6,1.117,0,.069,0,.138,0,.207" transform="translate(-37.592 -27.854)" fill="#979797"/><path d="M39.913,54.365c0-1.141-.005-2.282,0-3.423,0-.7.273-.965.978-.968.882,0,1.764-.012,2.645.007.625.013.957.329.9.822a.7.7,0,0,1-.785.657c-.588.006-1.176.016-1.763,0-.353-.007-.5.132-.484.49A10.063,10.063,0,0,1,41.4,53.2c-.028.353.126.47.444.467.484,0,.968-.01,1.452-.005.613.006.931.259.932.73s-.32.724-.932.742q-.726.02-1.452,0c-.338-.01-.455.128-.436.463a12.662,12.662,0,0,1,0,1.3c-.014.314.1.435.417.427.587-.014,1.176-.01,1.763,0,.548.011.835.253.857.694s-.233.745-.785.764c-.984.034-1.971.035-2.955.008-.531-.015-.78-.327-.784-.895-.008-1.176,0-2.351,0-3.527" transform="translate(-22.26 -27.87)" fill="#979797"/></g></g></g></svg>