<svg xmlns="http://www.w3.org/2000/svg" width="25.99" height="25.99" viewBox="0 0 25.99 25.99"><path d="M8.122,25.99A8.122,8.122,0,0,1,0,17.869V8.123A8.123,8.123,0,0,1,8.122,0h9.745A8.123,8.123,0,0,1,25.99,8.123v9.745a8.122,8.122,0,0,1-8.122,8.121ZM2.436,8.123v9.745a5.692,5.692,0,0,0,5.686,5.686h9.745a5.692,5.692,0,0,0,5.686-5.686V8.123a5.692,5.692,0,0,0-5.686-5.686H8.122A5.692,5.692,0,0,0,2.436,8.123ZM6.5,12.995a6.5,6.5,0,1,1,6.5,6.5A6.5,6.5,0,0,1,6.5,12.995Zm2.436,0a4.061,4.061,0,1,0,4.061-4.06A4.066,4.066,0,0,0,8.934,12.995Zm10.175-6.98a.867.867,0,1,1,.867.868A.868.868,0,0,1,19.109,6.015Z" fill="#2790f4"/></svg>