<svg xmlns="http://www.w3.org/2000/svg" xmlns:xlink="http://www.w3.org/1999/xlink" width="52.56" height="62.97" viewBox="0 0 52.56 62.97"><defs><clipPath id="a"><rect width="52.56" height="62.97" fill="#2790f4"/></clipPath></defs><g clip-path="url(#a)"><path d="M0,31.448Q0,16.4,0,1.357C0,.349.322.024,1.322.024,16.561.023,31.8.044,47.04,0a5.441,5.441,0,0,1,5.446,4.339,5.086,5.086,0,0,1,.071.909q.005,28.19,0,56.38c0,1-.336,1.338-1.333,1.339q-24.961,0-49.922,0c-.972,0-1.3-.351-1.3-1.365Q0,46.527,0,31.448m2.1.037q0,14.357-.012,28.714c0,.535.121.691.677.69q23.515-.023,47.031,0c.563,0,.673-.171.673-.695q-.018-24.551,0-49.1c0-.456-.118-.6-.582-.593-1.489.026-2.978.013-4.466.007-.9,0-1.267-.37-1.269-1.271,0-1.53,0-3.059,0-4.589A2.223,2.223,0,0,0,41.625,2.12Q22.247,2.119,2.87,2.1c-.645,0-.785.177-.784.8q.031,14.292.014,28.583M46.253,5.779c0,.793.011,1.513-.005,2.233-.007.312.1.415.415.411q1.673-.022,3.346,0c.333,0,.465-.087.457-.442-.021-.916.027-1.835-.014-2.749a3.151,3.151,0,0,0-1.016-2.264,4.51,4.51,0,0,0-3.456-.847c-.183,0-.218.123-.141.267a7.247,7.247,0,0,1,.414,3.389" transform="translate(0 0)" fill="#2790f4"/><path d="M34.481,45.007A10.5,10.5,0,1,1,44.976,34.585,10.523,10.523,0,0,1,34.481,45.007m-.034-2.1a8.36,8.36,0,0,0,8.392-8.3A8.384,8.384,0,0,0,26.072,34.4a8.341,8.341,0,0,0,8.375,8.511" transform="translate(-19.741 -19.807)" fill="#2790f4"/><path d="M165.406,325.59q-4.138,0-8.276,0a1.028,1.028,0,0,1-1.131-.875.976.976,0,0,1,.655-1.149,1.347,1.347,0,0,1,.511-.069q8.243,0,16.486,0c.784,0,1.238.385,1.248,1.029.011.668-.454,1.059-1.283,1.059q-4.105,0-8.21,0" transform="translate(-128.649 -266.818)" fill="#2790f4"/><path d="M105.338,193.835q-4.133,0-8.267,0a1.03,1.03,0,0,1-1.011-.585,1,1,0,0,1,.053-1.054,1.038,1.038,0,0,1,.951-.465q8.3.008,16.6.007c.768,0,1.219.419,1.2,1.074a1.056,1.056,0,0,1-1.2,1.012q-4.166.007-8.332,0Z" transform="translate(-79.127 -158.142)" fill="#2790f4"/><path d="M105.392,217.787c-2.755,0-5.51-.006-8.265,0a1.065,1.065,0,0,1-1.1-.652.994.994,0,0,1,.167-1.1,1.067,1.067,0,0,1,.876-.355q8.3.008,16.6.008c.757,0,1.217.434,1.2,1.082-.019.61-.477,1-1.2,1q-4.133.007-8.265,0Z" transform="translate(-79.123 -177.897)" fill="#2790f4"/><path d="M105.364,241.74c-2.737,0-5.474,0-8.212,0a1.08,1.08,0,0,1-1.081-.585.992.992,0,0,1,.054-1.055,1.048,1.048,0,0,1,.954-.464q8.31.008,16.62.008a1.052,1.052,0,0,1,1.175,1.042,1.041,1.041,0,0,1-1.167,1.043q-4.171.009-8.343,0Z" transform="translate(-79.135 -197.655)" fill="#2790f4"/><path d="M105.42,265.7c-2.759,0-5.517,0-8.276,0a1.069,1.069,0,0,1-1.1-.657.981.981,0,0,1,.183-1.1,1.085,1.085,0,0,1,.882-.345q8.276.007,16.551.005c.768,0,1.226.414,1.22,1.061s-.473,1.027-1.248,1.028q-4.105.005-8.21,0" transform="translate(-79.139 -217.417)" fill="#2790f4"/><path d="M105.311,169.87q-4.1,0-8.2,0c-.841,0-1.386-.615-1.172-1.332a1.091,1.091,0,0,1,1.216-.77c3.39.012,6.781,0,10.171.005,2.122,0,4.244.019,6.365,0,.719-.006.932.475,1.093,1,.136.45-.162.734-.5.966a1.272,1.272,0,0,1-.763.123h-8.2Z" transform="translate(-79.089 -138.372)" fill="#2790f4"/><path d="M170.993,107.908c2.584,0,5.168.005,7.751,0a1.053,1.053,0,0,1,1.1.75.983.983,0,0,1-.35,1.116,1.074,1.074,0,0,1-.732.231q-7.817,0-15.634,0a1.049,1.049,0,1,1,.044-2.092q3.909-.008,7.817,0Z" transform="translate(-133.641 -88.998)" fill="#2790f4"/><path d="M170.953,133.945q-3.843,0-7.686,0c-.817,0-1.265-.406-1.243-1.1.021-.645.462-.995,1.27-.995q7.588,0,15.175,0a1.578,1.578,0,0,1,.836.107,1,1,0,0,1,.561,1.147,1.023,1.023,0,0,1-1.1.839q-3.909-.006-7.817,0Z" transform="translate(-133.636 -108.746)" fill="#2790f4"/><path d="M198.3,86.038q-2.463,0-4.926,0c-.887,0-1.348-.373-1.34-1.07.008-.667.462-1.026,1.309-1.026,3.371,0,6.743.006,10.114,0a1.083,1.083,0,0,1,1.13.719.993.993,0,0,1-.36,1.17,1.258,1.258,0,0,1-.87.213q-2.528-.006-5.057,0Z" transform="translate(-158.388 -69.231)" fill="#2790f4"/><path d="M209.241,301.628c-1.332,0-2.665,0-4,0-.775,0-1.223-.393-1.228-1.046s.453-1.047,1.218-1.048q4.03,0,8.06,0c.774,0,1.224.392,1.229,1.041s-.448,1.046-1.219,1.05c-1.354.006-2.708,0-4.062,0" transform="translate(-168.271 -247.051)" fill="#2790f4"/><path d="M39.165,169.878c-.655,0-1.309.006-1.964,0a1.037,1.037,0,0,1-1.171-1.029,1.009,1.009,0,0,1,1.128-1.063q2.03-.017,4.059,0a1.047,1.047,0,1,1-.022,2.088c-.676.011-1.353,0-2.03,0Z" transform="translate(-29.717 -138.381)" fill="#2790f4"/><path d="M39.113,215.692c.7,0,1.4-.009,2.1,0a1.047,1.047,0,1,1-.024,2.088q-2.031.016-4.062,0a1.048,1.048,0,1,1,.024-2.092c.655-.009,1.31,0,1.965,0" transform="translate(-29.71 -177.898)" fill="#2790f4"/><path d="M39.173,239.648c.676,0,1.353-.01,2.029,0a1.046,1.046,0,1,1,0,2.086q-2.029.017-4.058,0a1.048,1.048,0,1,1,0-2.09c.676-.009,1.353,0,2.029,0" transform="translate(-29.714 -197.657)" fill="#2790f4"/><path d="M39.213,263.6c.679,0,1.358-.013,2.036,0a1.041,1.041,0,1,1,.023,2.081q-2.1.023-4.2,0a1.042,1.042,0,1,1,.042-2.084c.7-.014,1.4,0,2.1,0Z" transform="translate(-29.717 -217.412)" fill="#2790f4"/><path d="M39.109,193.82c-.677,0-1.355.013-2.031,0a1.013,1.013,0,0,1-1.053-1.078.985.985,0,0,1,1.045-1.011q2.1-.02,4.194,0a1.043,1.043,0,1,1,.008,2.085c-.72.017-1.442,0-2.162,0Z" transform="translate(-29.713 -158.128)" fill="#2790f4"/><path d="M242.141,191.742c.35,0,.7-.014,1.051,0a1.029,1.029,0,0,1,1.027,1.048,1.018,1.018,0,0,1-.979,1.026c-.743.028-1.489.03-2.232,0a1.041,1.041,0,0,1,.018-2.08c.371-.019.744,0,1.116,0Z" transform="translate(-197.966 -158.14)" fill="#2790f4"/><path d="M242.07,217.76c-.35,0-.7.018-1.05,0a1.021,1.021,0,0,1-1-1.073,1,1,0,0,1,.991-1.008c.743-.023,1.489-.023,2.232,0a1.014,1.014,0,0,1,.976,1.029,1.027,1.027,0,0,1-.964,1.042c-.392.027-.788.005-1.182.005Z" transform="translate(-197.965 -177.874)" fill="#2790f4"/><path d="M242.109,241.716c-.372,0-.745.021-1.116,0a1.023,1.023,0,0,1-.977-1.1,1.006,1.006,0,0,1,1.018-.984c.722-.019,1.445-.019,2.166,0a1.039,1.039,0,0,1,.025,2.076c-.371.023-.744,0-1.116.006" transform="translate(-197.964 -197.634)" fill="#2790f4"/><path d="M242.168,263.6c.348,0,.7-.016,1.045,0a1.039,1.039,0,0,1,.03,2.076c-.739.025-1.481.026-2.22,0a1.042,1.042,0,0,1,.035-2.083c.369-.015.74,0,1.11,0Z" transform="translate(-197.968 -217.408)" fill="#2790f4"/><path d="M242.069,169.867c-.35,0-.7.018-1.048,0a1.021,1.021,0,0,1-1-1.074.99.99,0,0,1,.991-1c.72-.025,1.442-.02,2.163,0,.418.012.814.09.633.69a.635.635,0,0,0,.066.376c.245.6.036.96-.627,1.006-.391.027-.786,0-1.179,0Z" transform="translate(-197.969 -138.374)" fill="#2790f4"/><path d="M72.157,51.913c0,.85-.365,1.3-.925,1.357-.644.069-1.056-.275-1.173-1.02a1.084,1.084,0,0,0-.992-1.047A.977.977,0,0,0,68.01,52c-.192.668.318,1.224,1.171,1.279a3.148,3.148,0,0,1,1.392,5.882.9.9,0,0,0-.567.694A.938.938,0,0,1,69,60.617a.91.91,0,0,1-.975-.716,1.126,1.126,0,0,0-.65-.79,3.025,3.025,0,0,1-1.514-2.725.958.958,0,0,1,.924-1,1.035,1.035,0,0,1,1.161.824,3.4,3.4,0,0,0,.139.63.964.964,0,0,0,1.049.613,1,1,0,0,0,.9-.913.964.964,0,0,0-.562-1.019,1.437,1.437,0,0,0-.629-.155,3.142,3.142,0,0,1-1.372-5.9.815.815,0,0,0,.521-.654.945.945,0,0,1,1.053-.784.922.922,0,0,1,.977.795c.053.383.248.485.519.641a3.029,3.029,0,0,1,1.621,2.447" transform="translate(-54.288 -39.615)" fill="#2790f4"/></g></svg>