<svg xmlns="http://www.w3.org/2000/svg" xmlns:xlink="http://www.w3.org/1999/xlink" width="31.233" height="53.097" viewBox="0 0 31.233 53.097"><defs><clipPath id="a"><rect width="31.233" height="53.097" fill="#979797"/></clipPath></defs><g clip-path="url(#a)"><path d="M28.5,0a.628.628,0,0,0,.359.191,3.255,3.255,0,0,1,2.372,3.32q-.007,10.918-.014,21.836,0,9.8,0,19.606c0,1.555-.024,3.111.011,4.666A3.4,3.4,0,0,1,27.674,53.1c-8.039-.034-16.079-.014-24.119-.016A3.357,3.357,0,0,1,.022,49.568c-.019-1.971,0-3.941,0-5.912Q.015,25.943.01,8.23C.01,6.743.043,5.255,0,3.769A3.472,3.472,0,0,1,2.5.138,1.659,1.659,0,0,0,2.771,0ZM1.2,26.559h0q0,9.181,0,18.362c0,.676.005.671.688.671q13.564,0,27.129,0c1.166,0,1.061.184,1.061-1.035q0-18.155,0-36.31c0-.121,0-.242,0-.363,0-.232-.1-.355-.344-.351-.138,0-.276,0-.415,0q-13.538,0-27.077.01c-1.112,0-1.031-.162-1.033,1.025q-.009,9,0,18M15.63,46.764v0H8.68q-3.475,0-6.95,0c-.5,0-.527.03-.53.531,0,.761-.014,1.521,0,2.282A2.162,2.162,0,0,0,3.586,51.91q3.138,0,6.276,0,8.921,0,17.843,0a2.088,2.088,0,0,0,2.341-1.979c.078-.927.025-1.866.031-2.8,0-.263-.136-.373-.39-.366-.121,0-.242,0-.363,0H15.63M15.7,6.352H29.384c.681,0,.688-.006.69-.7,0-.743.017-1.487,0-2.229a2.088,2.088,0,0,0-1.334-2.035,2.859,2.859,0,0,0-1.117-.173q-12,0-24,0c-.1,0-.207,0-.311,0A2.061,2.061,0,0,0,1.255,3.054a20.25,20.25,0,0,0-.038,2.9c0,.277.154.4.43.4.155,0,.311,0,.467,0H15.7" transform="translate(0 0.001)" fill="#979797"/><path d="M32.615,61.146c.085,1.476-.369,1.848-1.667,1.842-.861,0-1.359.261-1.515,1.125a1.693,1.693,0,0,1-.275.612.608.608,0,0,0,.084.87c.276.285.524.6.775.906a1.088,1.088,0,0,1-.084,1.653c-.266.272-.53.546-.808.8a1.055,1.055,0,0,1-1.573.082c-.368-.286-.721-.592-1.07-.9a.449.449,0,0,0-.6-.076,6.167,6.167,0,0,1-1.43.6.454.454,0,0,0-.369.426c-.051.361-.06.723-.075,1.085-.043,1.007-.476,1.432-1.491,1.447a5.328,5.328,0,0,1-1.189-.05,1.088,1.088,0,0,1-.894-.891,14.37,14.37,0,0,1-.135-1.495.544.544,0,0,0-.444-.542,4.717,4.717,0,0,1-1.289-.531.533.533,0,0,0-.737.073c-.3.286-.624.547-.947.806a1.1,1.1,0,0,1-1.693-.088c-.284-.278-.572-.553-.839-.847a1.038,1.038,0,0,1-.058-1.5c.3-.382.615-.747.937-1.108a.426.426,0,0,0,.067-.559,5.958,5.958,0,0,1-.594-1.432.524.524,0,0,0-.565-.417c-.448-.025-.9-.06-1.342-.111a1.11,1.11,0,0,1-1.05-1.136c-.017-.414-.017-.83,0-1.244a1.163,1.163,0,0,1,1.192-1.182c.433-.018.861-.077,1.291-.1a.438.438,0,0,0,.459-.381,5.7,5.7,0,0,1,.572-1.385.467.467,0,0,0-.055-.645c-.306-.329-.6-.674-.869-1.03a1.07,1.07,0,0,1,.1-1.648c.266-.272.529-.547.805-.808a1.1,1.1,0,0,1,1.585-.07c.352.279.7.566,1.03.869a.482.482,0,0,0,.645.085,6.171,6.171,0,0,1,1.432-.594.425.425,0,0,0,.338-.392c.1-.512.032-1.036.143-1.547a1.087,1.087,0,0,1,1.191-.975c.415,0,.83-.009,1.244,0a1.08,1.08,0,0,1,1.063.821,13.208,13.208,0,0,1,.171,1.646c.05.261.13.391.385.463a6.157,6.157,0,0,1,1.431.6.41.41,0,0,0,.553-.058c.335-.3.68-.587,1.028-.871a1.124,1.124,0,0,1,1.7.083q.391.379.768.772a1.09,1.09,0,0,1,.06,1.656c-.273.335-.549.667-.839.987a.471.471,0,0,0-.083.645,6,6,0,0,1,.6,1.429.411.411,0,0,0,.435.345c.362.015.722.073,1.084.089,1,.045,1.4.457,1.406,1.45,0,.121,0,.242,0,.339m-4.294,6.92a3.637,3.637,0,0,0,.576-.522c.219-.192.2-.361.01-.569-.358-.4-.687-.823-1.047-1.219a.693.693,0,0,1-.1-.936,7.185,7.185,0,0,0,.943-2.286.711.711,0,0,1,.733-.593c.5-.046,1-.08,1.5-.111.341-.022.558-.161.5-.551a1.618,1.618,0,0,1,0-.31c.017-.31-.134-.428-.435-.438-.448-.016-.9-.069-1.344-.094-.671-.036-.835-.153-1-.817a7.254,7.254,0,0,0-.831-2c-.294-.483-.285-.635.069-1.064.329-.4.663-.8,1.009-1.184.185-.207.208-.384-.009-.575a2.067,2.067,0,0,1-.255-.258c-.241-.3-.47-.262-.738-.019-.4.36-.815.7-1.222,1.043a.614.614,0,0,1-.806.059,6.874,6.874,0,0,0-2.329-.971.683.683,0,0,1-.593-.679c-.039-.447-.08-.895-.1-1.343-.035-.707-.029-.707-.743-.7a.74.74,0,0,1-.1,0c-.337-.04-.482.123-.468.447.022.521-.1,1.031-.116,1.55a.692.692,0,0,1-.6.728,6.869,6.869,0,0,0-2.33.971.6.6,0,0,1-.8-.065c-.338-.3-.693-.572-1.032-.867-.579-.5-.576-.506-1.1.038a.817.817,0,0,1-.074.073c-.234.183-.2.364-.018.568.344.388.684.78,1.012,1.181.374.456.383.557.075,1.056a6.942,6.942,0,0,0-.861,2.1c-.122.529-.31.681-.856.722-.465.035-.931.066-1.4.1-.489.038-.505.059-.515.563-.012.615.036.7.524.735s1,.076,1.5.115a.709.709,0,0,1,.726.606,6.881,6.881,0,0,0,.942,2.285.667.667,0,0,1-.078.893c-.276.31-.538.632-.81.945-.545.626-.539.617.06,1.183.215.2.373.245.608.027.392-.364.814-.7,1.219-1.047a.694.694,0,0,1,.9-.1,6.915,6.915,0,0,0,2.332.961.666.666,0,0,1,.569.7c0,.5.134.991.125,1.5-.008.461.1.537.611.545.563.009.656-.062.689-.525.036-.5.069-1,.11-1.5a.7.7,0,0,1,.609-.732,6.489,6.489,0,0,0,2.237-.921.717.717,0,0,1,.947.065c.406.35.815.7,1.224,1.042a.65.65,0,0,0,.359.193" transform="translate(-6.543 -28.304)" fill="#979797"/><path d="M17.984,30.031a.647.647,0,0,1-.505-.225c-1.062-1.063-2.129-2.12-3.179-3.194-.338-.345-.329-.591.018-.943q1.546-1.568,3.113-3.113c.345-.341.693-.363.954-.1s.228.565-.144.942c-.776.787-1.562,1.564-2.342,2.346-.406.408-.407.41-.013.805q1.188,1.192,2.379,2.382c.187.188.357.391.256.684a.566.566,0,0,1-.537.413" transform="translate(-7.837 -12.425)" fill="#979797"/><path d="M47.122,30.036a.579.579,0,0,1-.528-.871,1.947,1.947,0,0,1,.274-.309q1.134-1.14,2.27-2.277c.409-.41.41-.413-.015-.839Q48.062,24.674,47,23.612a4.2,4.2,0,0,1-.353-.379.531.531,0,0,1,0-.751.581.581,0,0,1,.8-.061,1.988,1.988,0,0,1,.27.241q1.449,1.448,2.895,2.9c.5.5.5.7-.008,1.208-.987.993-1.982,1.979-2.971,2.969a.8.8,0,0,1-.509.3" transform="translate(-25.929 -12.433)" fill="#979797"/><path d="M29.772,29.419a.984.984,0,0,1,.191-.486q1.779-3.1,3.56-6.19c.258-.448.6-.582.925-.384.3.185.344.542.11.963-.142.256-.295.507-.441.761q-1.54,2.667-3.081,5.333a2.352,2.352,0,0,1-.329.461.488.488,0,0,1-.574.105.564.564,0,0,1-.36-.563" transform="translate(-16.605 -12.421)" fill="#979797"/><path d="M32.441,110.276c.534,0,1.068-.009,1.6,0,.445.01.742.249.736.562a.664.664,0,0,1-.735.579q-1.629.018-3.257-.008a.582.582,0,0,1-.639-.6c.012-.316.237-.525.637-.536.551-.016,1.1,0,1.654,0" transform="translate(-16.816 -61.504)" fill="#979797"/><path d="M32.407,8.386c-.534,0-1.068.012-1.6,0-.429-.012-.666-.224-.676-.555a.592.592,0,0,1,.646-.594q1.679-.023,3.358.009a.587.587,0,0,1,.631.557.6.6,0,0,1-.652.589c-.568.021-1.137.005-1.7.005V8.386" transform="translate(-16.805 -4.029)" fill="#979797"/><path d="M23.372,67.544a5.3,5.3,0,1,1,5.181,5.369,5.321,5.321,0,0,1-5.181-5.369m5.291,4.179a4.125,4.125,0,1,0-4.127-4.153,4.065,4.065,0,0,0,4.127,4.153" transform="translate(-13.034 -34.742)" fill="#979797"/></g></svg>