<svg xmlns="http://www.w3.org/2000/svg" xmlns:xlink="http://www.w3.org/1999/xlink" width="46.802" height="46.806" viewBox="0 0 46.802 46.806"><defs><clipPath id="a"><rect width="46.802" height="46.806" fill="#979797"/></clipPath></defs><g clip-path="url(#a)"><path d="M27.892,46.8H8.011c-.079,0-.158-.005-.236,0-.209.019-.278-.086-.274-.28.006-.3.008-.6,0-.9-.006-.2.058-.287.269-.279.314.012.629,0,.944,0,.225.005.314-.1.3-.314-.005-.079,0-.157,0-.236,0-2.235-.006-4.47.007-6.706a.689.689,0,0,0-.4-.7,2.194,2.194,0,0,1,.058-3.863c1.648-.919,3.312-1.812,4.969-2.715.372-.2.745-.407,1.121-.6a.456.456,0,0,0,.291-.486,3.571,3.571,0,0,1,0-.377q0-12.844,0-25.689c0-.731-.1-.621.617-.633.22,0,.44,0,.661,0a.206.206,0,0,0,.23-.234c0-.126.011-.253,0-.378A2.306,2.306,0,0,1,18.952,0c4.943.023,9.886.009,14.828.009,1.024,0,2.047,0,3.07,0a2.268,2.268,0,0,1,2.259,1.663,3.611,3.611,0,0,1,.078.981c.021.36.02.367.381.376.3.008.6,0,.9,0,.153,0,.231.058.227.223,0,.236.006.472.006.708q0,12.75,0,25.5a1.921,1.921,0,0,1,0,.236.477.477,0,0,0,.306.521c1.289.691,2.571,1.4,3.855,2.1q1.056.576,2.113,1.153a2.5,2.5,0,0,1,1.047,1.054,2.148,2.148,0,0,1-.862,2.86.7.7,0,0,0-.421.735c.013,2.235.008,4.47.008,6.706,0,.016,0,.032,0,.048.008.472.008.474.466.479.268,0,.536,0,.8,0,.143,0,.242.032.238.209-.006.346,0,.693,0,1.039,0,.134-.058.2-.2.2-.157,0-.315,0-.472,0H27.892M19.529,29.136a.709.709,0,0,0,.062-.459c0-.645-.018-1.291.009-1.935a.655.655,0,0,0-.407-.693,2.218,2.218,0,0,1-.974-2.647,2.351,2.351,0,0,1,2.151-1.486q7.483.015,14.966,0c.079,0,.158,0,.236,0a2.27,2.27,0,0,1,2.1,2.167,2.19,2.19,0,0,1-1.213,2.036c-.18.1-.3.192-.3.421.01.8,0,1.6,0,2.407a.74.74,0,0,0,.042.175c.189.04.313-.072.447-.142.265-.137.53-.277.788-.427a.444.444,0,0,1,.52,0,5.316,5.316,0,0,0,.624.333,1.444,1.444,0,0,0,.608.251,1.713,1.713,0,0,0,.045-.616q0-9.773,0-19.546c0-.829.09-.72-.733-.72q-10.67,0-21.34,0c-.711,0-.654-.086-.654.66q0,9.749,0,19.5c0,.173-.01.347,0,.519.013.21.074.251.271.156q.488-.235.958-.508a.5.5,0,0,1,.6-.012,6.018,6.018,0,0,0,.746.4c.136.067.261.182.433.157M30.116,41.4h0c0,1.164,0,2.329,0,3.493,0,.447.006.453.438.455q1.487.007,2.974,0c.409,0,.41-.008.417-.43,0-.11,0-.22,0-.331,0-1.495.015-2.99,0-4.484a2.309,2.309,0,0,1,2.337-2.319c.943.037,1.888,0,2.832.008a2.24,2.24,0,0,1,2.335,2.351c0,1.542,0,3.084,0,4.626,0,.576,0,.578.558.579h2.738c.537,0,.538,0,.538-.547q0-3.116,0-6.231c0-.236-.006-.472,0-.708a.351.351,0,0,0-.229-.358c-1.483-.793-2.959-1.6-4.436-2.4-.842-.459-1.685-.915-2.518-1.39a.675.675,0,0,0-.788,0,2.335,2.335,0,0,1-.2.118c-2.208,1.205-4.412,2.417-6.63,3.605a.589.589,0,0,0-.371.614c.015,1.117.006,2.234.006,3.351m-19.649.054h0c0,1.164,0,2.329,0,3.493,0,.389.011.4.4.4.959.006,1.919,0,2.879,0,.549,0,.551,0,.552-.534,0-1.589.006-3.178,0-4.768a2.279,2.279,0,0,1,2.243-2.261c.975.019,1.951,0,2.927.005a2.234,2.234,0,0,1,2.33,2.355c0,1.574,0,3.147,0,4.721,0,.473.008.477.465.479.708,0,1.416,0,2.124,0,.315,0,.63-.006.944,0,.224.005.315-.1.3-.314-.006-.078,0-.157,0-.236q0-3.328,0-6.656c0-.11,0-.22,0-.33a.3.3,0,0,0-.191-.288q-1.933-1.036-3.856-2.089c-1.021-.557-2.046-1.108-3.058-1.682a.79.79,0,0,0-.914-.021c-.384.244-.8.443-1.2.662-1.822.995-3.634,2.007-5.471,2.971a.779.779,0,0,0-.49.829c.024,1.085.008,2.171.008,3.257M27.891,26.4H21.515c-.462,0-.466,0-.466.472,0,.945.009,1.889,0,2.833a.514.514,0,0,0,.31.52q2.947,1.594,5.884,3.207c.206.113.393.317.606.344.242.031.433-.221.652-.339,1.937-1.046,3.867-2.109,5.808-3.148a.679.679,0,0,0,.408-.7c-.021-.913-.006-1.826-.006-2.739,0-.079,0-.157,0-.236a.187.187,0,0,0-.2-.207c-.11,0-.221,0-.331,0H27.891M27.885,4.48H17.123c-.11,0-.221.007-.33,0-.2-.012-.279.086-.277.282,0,.488-.007.976,0,1.463.008.594-.06.582.6.582H37.979c.314,0,.629.007.944,0s.313-.022.318-.333c.006-.425,0-.85,0-1.274,0-.813.085-.716-.689-.717q-5.334-.005-10.667,0M46.8,35.474a.8.8,0,0,0-.08-.317,1.082,1.082,0,0,0-.558-.485q-2.071-1.129-4.144-2.254Q40.006,31.324,38,30.228a.517.517,0,0,0-.565-.023q-4.095,2.246-8.2,4.476a1.805,1.805,0,0,0-.387.266.748.748,0,0,0-.118.952.79.79,0,0,0,.905.329,2.36,2.36,0,0,0,.386-.175q2.154-1.174,4.306-2.352c1.007-.551,2.017-1.1,3.019-1.657a.6.6,0,0,1,.7-.005,3.188,3.188,0,0,0,.289.159q3.455,1.892,6.912,3.782a3,3,0,0,0,.553.261.779.779,0,0,0,1-.767M27.15,35.445a.757.757,0,0,0-.3-.556,2.826,2.826,0,0,0-.36-.224q-2.194-1.2-4.388-2.392c-1.256-.684-2.515-1.363-3.768-2.052a.517.517,0,0,0-.564-.008q-4.053,2.223-8.113,4.429a2.316,2.316,0,0,0-.434.281.749.749,0,0,0-.137.985.785.785,0,0,0,.91.313,2.56,2.56,0,0,0,.385-.177c2.388-1.3,4.779-2.6,7.157-3.918a.935.935,0,0,1,1.038,0c2.335,1.3,4.683,2.575,7.029,3.856a2.922,2.922,0,0,0,.554.258.794.794,0,0,0,.986-.8M27.883,3.03h0q4.554,0,9.109,0c.83,0,.749.151.728-.812a.738.738,0,0,0-.754-.751c-.345-.019-.692-.01-1.038-.01-5.569,0-11.139.011-16.708-.01-1,0-1.257.393-1.194,1.291.013.19.072.3.275.292.126,0,.252,0,.378,0h9.2M40,42.543h0c0-.819.009-1.638,0-2.456a.774.774,0,0,0-.825-.835q-1.44-.021-2.88,0a.8.8,0,0,0-.875.885c-.008,1.606-.005,3.211,0,4.817,0,.386.014.4.4.4q1.889.007,3.778,0c.388,0,.4-.015.4-.4,0-.8,0-1.606,0-2.408m-19.649-.011c0-.787,0-1.574,0-2.361-.005-.629-.3-.918-.932-.922q-1.346-.01-2.691,0c-.655,0-.953.3-.963.947-.008.551,0,1.1,0,1.652,0,1.039,0,2.078,0,3.117,0,.37.014.382.368.384q1.936.009,3.872,0c.321,0,.341-.027.343-.36.005-.819,0-1.637,0-2.456m7.581-19.155v0H20.612a2.675,2.675,0,0,0-.377.012.779.779,0,0,0,0,1.548,2.429,2.429,0,0,0,.33.008l14.633,0a2.05,2.05,0,0,0,.376-.018.778.778,0,0,0-.046-1.54,2.871,2.871,0,0,0-.377-.009H27.928m.732,18.1v-3.2c0-.718,0-.719-.647-1.021-.054-.025-.134-.065-.173-.044a3.83,3.83,0,0,0-.679.413c-.134.114-.067.328-.067.5q0,3.322,0,6.644c0,.11.007.22.005.33,0,.176.082.257.256.257.251,0,.5,0,.754,0,.55,0,.551,0,.552-.531q0-1.673,0-3.346" transform="translate(-4.478 0.001)" fill="#979797"/><path d="M.727,112.628c.172,0,.343,0,.515,0s.217.076.214.23q-.007.492,0,.983c0,.182-.079.248-.254.244-.312-.007-.625-.009-.937,0-.211.007-.271-.1-.267-.284.006-.312.007-.625,0-.937,0-.188.086-.246.258-.237.156.008.312,0,.468,0h0" transform="translate(0 -67.278)" fill="#979797"/><path d="M114.074,113.328c0,.758,0,.765-.735.755-.806-.01-.717.133-.722-.729,0-.724,0-.724.715-.725h.047c.692,0,.692,0,.7.7" transform="translate(-67.272 -67.28)" fill="#979797"/><path d="M57.022,39.433c.735,0,.743,0,.741.746,0,.852.086.7-.685.7-.868,0-.762.147-.768-.77,0-.675,0-.675.665-.676h.047" transform="translate(-33.636 -23.556)" fill="#979797"/><path d="M42.751,25.1c.008.768.008.773-.763.766s-.691.129-.695-.7c0-.745,0-.745.742-.744h.047c.793.015.637-.088.669.682" transform="translate(-24.666 -14.586)" fill="#979797"/><path d="M72.1,31.934c.677,0,.678,0,.683.659,0,.2,0,.407,0,.611a.156.156,0,0,1-.173.174c-.36,0-.721,0-1.081,0-.137,0-.192-.089-.192-.215,0-.345,0-.689,0-1.034,0-.141.075-.193.206-.191.188,0,.376,0,.564,0" transform="translate(-42.611 -19.076)" fill="#979797"/><path d="M79.637,31.924c.794.015.627-.088.641.706.015.885.081.724-.707.743-.126,0-.252,0-.378,0-.354-.009-.357-.01-.365-.383q-.008-.377,0-.755c.008-.3.012-.3.329-.309.141,0,.283,0,.48,0" transform="translate(-47.086 -19.069)" fill="#979797"/><path d="M34.479,40.882c-.754-.011-.689.12-.693-.707,0-.741,0-.741.744-.741.7,0,.7,0,.711.687.017.761.017.761-.763.761" transform="translate(-20.183 -23.556)" fill="#979797"/><path d="M42.743,40.163c-.006.877.1.7-.707.723-.141,0-.282-.007-.423,0-.211.014-.326-.055-.32-.287.008-.313.005-.626,0-.939,0-.159.072-.223.227-.221.344,0,.689,0,1.033,0,.138,0,.193.07.19.205,0,.172,0,.344,0,.517" transform="translate(-24.667 -23.56)" fill="#979797"/><path d="M50.251,40.207c0,.817.081.661-.66.677-.172,0-.345-.006-.517,0-.208.01-.275-.095-.272-.286,0-.313,0-.627,0-.94,0-.158.065-.226.224-.224.345.005.689,0,1.034,0,.138,0,.195.068.192.2,0,.188,0,.376,0,.564" transform="translate(-29.152 -23.558)" fill="#979797"/><path d="M57.029,31.929c.156,0,.313,0,.469,0s.267.039.263.234c-.007.312,0,.625.005.938.005.192-.06.287-.269.279-.3-.011-.594-.008-.891,0-.189,0-.3-.054-.294-.263.005-.328,0-.656,0-.985a.173.173,0,0,1,.2-.2c.172,0,.344,0,.516,0v0" transform="translate(-33.639 -19.072)" fill="#979797"/><path d="M64.509,40.883c-.764-.014-.69.116-.693-.71,0-.741,0-.741.743-.74.708,0,.716,0,.712.728,0,.866.1.7-.715.722h-.047" transform="translate(-38.121 -23.556)" fill="#979797"/><path d="M72.774,40.162c-.005.867.112.705-.706.722-.157,0-.314-.006-.47,0-.207.01-.276-.1-.273-.287q.007-.47,0-.94c0-.159.068-.225.225-.222.344.005.689,0,1.034,0,.137,0,.195.07.192.2,0,.172,0,.345,0,.517" transform="translate(-42.607 -23.558)" fill="#979797"/><path d="M78.831,40.069c0-.68,0-.686.66-.677.246,0,.551-.105.723.063s.07.476.07.72c0,.781.064.649-.633.664H79.6c-.862-.017-.763.142-.772-.769" transform="translate(-47.091 -23.513)" fill="#979797"/><path d="M34.556,48.389c-.861-.015-.772.149-.771-.778,0-.774-.1-.658.683-.667.759-.009.759,0,.771.734.011.711.011.711-.682.711" transform="translate(-20.179 -28.042)" fill="#979797"/><path d="M42.705,47.544c.008.8.008.81-.746.8-.772-.008-.709.122-.707-.693,0-.232-.1-.521.053-.681.174-.18.477-.065.722-.069.671-.01.671,0,.679.66v-.018" transform="translate(-24.623 -27.999)" fill="#979797"/><path d="M50.257,47.638c.009.752.009.757-.736.749-.792-.008-.717.133-.72-.728,0-.718,0-.718.716-.718h.047c.685,0,.685,0,.693.7" transform="translate(-29.152 -28.041)" fill="#979797"/><path d="M65.273,32.641c-.013.883.1.727-.752.73-.764,0-.7.128-.706-.693,0-.754,0-.754.732-.753s.72,0,.726.715" transform="translate(-38.121 -19.071)" fill="#979797"/><path d="M72.781,47.654c.008.738.008.743-.747.734s-.707.128-.71-.695c0-.752,0-.752.732-.753s.718,0,.726.713" transform="translate(-42.606 -28.041)" fill="#979797"/><path d="M80.284,47.681c-.014.847.084.7-.694.706-.838,0-.763.139-.759-.741,0-.813-.12-.693.694-.7.751-.009.751,0,.759.738" transform="translate(-47.088 -28.041)" fill="#979797"/><path d="M50.255,32.643c-.012.892.085.727-.705.728-.827,0-.754.145-.75-.74,0-.819-.117-.688.682-.7h.047c.717,0,.717,0,.726.715" transform="translate(-29.149 -19.072)" fill="#979797"/><path d="M42.029,31.933c.713,0,.713,0,.72.716,0,.157-.009.313,0,.469.012.211-.093.268-.285.262-.3-.009-.594-.008-.891,0-.2.006-.281-.085-.278-.28.005-.313,0-.626,0-.939,0-.152.055-.235.219-.23s.344,0,.516,0" transform="translate(-24.667 -19.075)" fill="#979797"/><path d="M34.56,25.866c-.85-.017-.777.161-.772-.776,0-.762-.1-.658.688-.667.763-.008.769,0,.766.78,0,.806.078.649-.682.664" transform="translate(-20.182 -14.589)" fill="#979797"/><path d="M80.285,25.156c-.008.847.058.705-.7.707-.839,0-.761.141-.757-.74,0-.815-.118-.694.692-.7.757-.008.757,0,.764.736" transform="translate(-47.087 -14.587)" fill="#979797"/><path d="M72.779,25.184c-.014.809.109.682-.7.68-.828,0-.757.148-.753-.738,0-.814-.116-.7.682-.705.771-.008.771,0,.774.763" transform="translate(-42.603 -14.587)" fill="#979797"/><path d="M64.573,24.419c.812.017.68-.105.7.7.017.753.007.759-.728.749-.789-.011-.724.137-.728-.72,0-.728,0-.728.711-.727h.047" transform="translate(-38.121 -14.587)" fill="#979797"/><path d="M57.042,25.868c-.811-.015-.73.133-.734-.72,0-.729,0-.734.719-.726.849.01.722-.1.734.726.012.868.1.7-.719.72" transform="translate(-33.636 -14.588)" fill="#979797"/><path d="M49.528,24.419c.722,0,.731,0,.729.716,0,.882.1.728-.7.729-.835,0-.752.143-.756-.735,0-.711,0-.711.727-.71" transform="translate(-29.152 -14.587)" fill="#979797"/><path d="M35.242,32.651c-.01.9.083.713-.718.719-.782.006-.746.124-.737-.722s-.125-.709.726-.72c.718-.009.718,0,.73.723" transform="translate(-20.181 -19.072)" fill="#979797"/><path d="M57.028,46.941c.73,0,.738,0,.734.745,0,.846.079.7-.686.7-.834,0-.765.133-.768-.781,0-.662,0-.662.673-.663h.047" transform="translate(-33.637 -28.041)" fill="#979797"/><path d="M65.274,47.657c.007.734.006.738-.749.73-.737-.007-.709.113-.709-.7,0-.743,0-.743.738-.743.714,0,.714,0,.72.716" transform="translate(-38.121 -28.041)" fill="#979797"/></g></svg>