<svg xmlns="http://www.w3.org/2000/svg" width="24.579" height="20.256" viewBox="0 0 24.579 20.256"><path d="M1249.586,37.433a8.815,8.815,0,0,1-2.812.809,5.45,5.45,0,0,0,2.112-2.794,8.1,8.1,0,0,1-3.162,1.139h0A5.025,5.025,0,0,0,1242.059,35a5.107,5.107,0,0,0-5.07,5.141,5.207,5.207,0,0,0,.128,1.148h0a13.973,13.973,0,0,1-10.453-5.337,5.191,5.191,0,0,0,1.538,6.8,3.231,3.231,0,0,1-2.214-.581,4.947,4.947,0,0,0,3.912,5.026,3.962,3.962,0,0,1-2.111.163c.161,1.512,2.25,3.49,4.532,3.49a8.937,8.937,0,0,1-7.312,2.136,15.081,15.081,0,0,0,7.933,2.274,14.2,14.2,0,0,0,14.192-15.021c0-.01,0-.019,0-.028s0-.043,0-.066,0-.049,0-.074A8.834,8.834,0,0,0,1249.586,37.433Z" transform="translate(-1225.007 -35)" fill="#2790f4"/></svg>