<svg xmlns="http://www.w3.org/2000/svg" xmlns:xlink="http://www.w3.org/1999/xlink" width="53.093" height="43.35" viewBox="0 0 53.093 43.35"><defs><clipPath id="a"><rect width="53.093" height="43.35" fill="#979797"/></clipPath></defs><g clip-path="url(#a)"><path d="M0,3a1.326,1.326,0,0,0,.164-.433A3.233,3.233,0,0,1,3.144.03C3.971-.026,4.8.013,5.633.017a1.122,1.122,0,0,1,.355.067A.681.681,0,0,1,6.463.8a.672.672,0,0,1-.562.6,3.809,3.809,0,0,1-.62.033c-.64,0-1.28-.014-1.919.01A1.856,1.856,0,0,0,1.518,3.356c0,.881.037,1.763-.027,2.644-.027.368.069.458.448.458.726,0,1.452-.015,2.179-.015q23.241,0,46.482,0c1.223,0,.985-.035,1-1.016.008-.692.009-1.384,0-2.075a1.825,1.825,0,0,0-1.792-1.9c-.258-.021-.518-.014-.777-.014q-19.376,0-38.752,0a6.339,6.339,0,0,1-.931-.042.611.611,0,0,1-.6-.7.661.661,0,0,1,.654-.67A4.89,4.89,0,0,1,9.96,0Q29.7,0,49.439,0A3.793,3.793,0,0,1,51.56.562a3.344,3.344,0,0,1,1.527,2.85c.009.19.006.38.006.571q0,17.69,0,35.38a6.815,6.815,0,0,1-.059,1.086,3.307,3.307,0,0,1-3.176,2.888c-.207.013-.415.01-.622.01q-17.664,0-35.328,0a5.547,5.547,0,0,1-.827-.036.695.695,0,0,1,.059-1.385c.206-.018.414-.011.622-.011h35.38c.225,0,.45.007.674-.007A1.872,1.872,0,0,0,51.6,39.991q0-15.485-.006-30.971c0-.225-.009-.451.011-.674.031-.344-.14-.472-.456-.471-.156,0-.311,0-.467,0H2.337c-.1,0-.207,0-.311,0-.479.028-.541.121-.532.613.039,2.281.084,4.563-.027,6.844-.011.224-.012.449-.012.674,0,6.018-.028,12.036.015,18.053q.021,2.981.062,5.963a1.811,1.811,0,0,0,1.712,1.869,9.608,9.608,0,0,0,.984.023c1.591,0,3.182,0,4.773,0a3.176,3.176,0,0,1,.619.042.7.7,0,0,1,0,1.35,2.135,2.135,0,0,1-.464.039c-1.868,0-3.735.012-5.6-.006A3.422,3.422,0,0,1,.98,42.31,2.966,2.966,0,0,1,.239,41.02,1.267,1.267,0,0,0,0,40.454V39.52a1.582,1.582,0,0,0,.1-.712q0-11.48,0-22.96a1.582,1.582,0,0,0-.1-.712Z" transform="translate(0 0)" fill="#979797"/><path d="M48.085,30.106a2.207,2.207,0,0,1-.95-.241c-.322-.126-.639-.265-.961-.39a1.581,1.581,0,0,1-.8-.7,10.832,10.832,0,0,1-.668-1.288.735.735,0,0,0-.759-.5q-1.038.019-2.075,0a.7.7,0,0,0-.725.464c-.191.425-.418.835-.632,1.249a1.054,1.054,0,0,1-.375.489c-1.047.549-2.062,1.26-3.35.72-.317-.133-.66-.2-.987-.316a.583.583,0,0,0-.663.144q-.819.831-1.646,1.654a.592.592,0,0,0-.118.67c.169.509.322,1.023.5,1.529a1.2,1.2,0,0,1-.032.907q-.275.644-.532,1.295a1.92,1.92,0,0,1-1.013,1.059c-.375.177-.739.378-1.114.554a.646.646,0,0,0-.418.648c.008.726.011,1.453,0,2.179a.687.687,0,0,0,.44.691c.406.193.8.4,1.2.608a1.76,1.76,0,0,1,.966,1.156.959.959,0,0,0,.088.244,2.887,2.887,0,0,1,.079,2.83c-.073.156-.107.329-.168.49a.606.606,0,0,0,.163.705q.8.779,1.577,1.578a.663.663,0,0,0,.754.178c.426-.144.855-.279,1.281-.423a1.8,1.8,0,0,1,1.316.055c.43.181.864.352,1.293.535a1.526,1.526,0,0,1,.794.782c.194.406.409.8.6,1.207a.686.686,0,0,0,.69.44c.743-.01,1.487-.008,2.231,0a.609.609,0,0,0,.607-.392c.207-.438.436-.865.647-1.3a1.628,1.628,0,0,1,.854-.794l.1-.039c1.787-.674,1.355-.885,3.5-.129a.937.937,0,0,0,1.147-.27c.445-.48.931-.924,1.379-1.405a.7.7,0,0,0,.169-.8c-.14-.371-.253-.754-.375-1.132a3.03,3.03,0,0,1-.1-.348,3.814,3.814,0,0,1,1.513-3.2c.381-.2.768-.4,1.158-.583a.651.651,0,0,0,.42-.648c-.008-.743-.007-1.487,0-2.23a.618.618,0,0,0-.39-.612c-.374-.179-.742-.371-1.111-.561a1.847,1.847,0,0,1-1.028-1.1,6.484,6.484,0,0,0-.386-.906,2.1,2.1,0,0,1-.061-1.664c.106-.311.2-.627.3-.937a1.3,1.3,0,0,0,.041-.905.623.623,0,0,1,.329-.828.785.785,0,0,1,.937.231,1.458,1.458,0,0,1,.268,1.178,11,11,0,0,1-.444,1.543,2.035,2.035,0,0,0,.945,2.233c.37.188.739.377,1.113.558A1.5,1.5,0,0,1,56.5,37.7q0,1.479,0,2.956a1.428,1.428,0,0,1-.835,1.331q-.642.34-1.3.652a1.009,1.009,0,0,0-.581.623,3.076,3.076,0,0,1-.2.477,1.364,1.364,0,0,0-.042,1.2,11.641,11.641,0,0,1,.4,1.232,1.558,1.558,0,0,1-.432,1.617q-.98.965-1.944,1.944a1.591,1.591,0,0,1-1.715.412c-.43-.13-.862-.257-1.283-.412a1.1,1.1,0,0,0-.9.03,5.574,5.574,0,0,1-.582.22,1.069,1.069,0,0,0-.667.608c-.16.364-.337.72-.51,1.078a1.7,1.7,0,0,1-1.726,1.072c-.881-.037-1.763-.017-2.645-.007a1.561,1.561,0,0,1-1.53-.953c-.189-.389-.4-.769-.577-1.161a1.412,1.412,0,0,0-.655-.621,2.261,2.261,0,0,0-2.222-.04,3.9,3.9,0,0,1-.639.21,1.6,1.6,0,0,1-1.662-.448q-.941-.966-1.907-1.908a1.6,1.6,0,0,1-.421-1.758c.13-.412.262-.824.407-1.231a1.459,1.459,0,0,0-.032-.953,2.048,2.048,0,0,0-1.4-1.513c-.179-.057-.337-.175-.512-.25a1.649,1.649,0,0,1-1.061-1.678q.014-1.3,0-2.593a1.633,1.633,0,0,1,1.034-1.642c.363-.162.708-.363,1.07-.527a1.374,1.374,0,0,0,.656-.693,2.3,2.3,0,0,0,.036-2.133,4.054,4.054,0,0,1-.222-.636,1.63,1.63,0,0,1,.4-1.678q.986-.994,1.98-1.982a1.581,1.581,0,0,1,1.671-.408c.431.128.853.284,1.282.418a2.075,2.075,0,0,0,2.208-.923c.18-.355.345-.716.522-1.072a1.638,1.638,0,0,1,1.608-1.008c.881.019,1.764.015,2.646,0a1.7,1.7,0,0,1,1.664,1.017c.2.4.4.8.591,1.212a1.134,1.134,0,0,0,.506.486,2.239,2.239,0,0,0,2.3.072,3.316,3.316,0,0,1,.9-.253.643.643,0,0,1,.8.474.652.652,0,0,1-.463.855,11.008,11.008,0,0,1-2.435.692" transform="translate(-16.359 -14.248)" fill="#979797"/><path d="M70.162,47.455a.86.86,0,0,1,.592.287c1,1,2.014,2,3.006,3.009a.817.817,0,0,1-.021,1.245c-.982,1-1.978,1.983-2.971,2.971a1.157,1.157,0,0,1-.245.19.667.667,0,0,1-1.008-.795,1.3,1.3,0,0,1,.41-.587c.659-.661,1.322-1.318,1.98-1.982.406-.41.4-.453-.013-.874q-1.04-1.05-2.09-2.091a.863.863,0,0,1-.29-.886.628.628,0,0,1,.651-.486" transform="translate(-38.75 -26.468)" fill="#979797"/><path d="M44.886,54.518a.649.649,0,0,1-.835.715,1.256,1.256,0,0,1-.555-.365c-.928-.929-1.86-1.853-2.784-2.786a.872.872,0,0,1,0-1.432q1.4-1.418,2.822-2.82a1.617,1.617,0,0,1,.367-.283.719.719,0,0,1,.854.158.615.615,0,0,1,.078.765,1.929,1.929,0,0,1-.386.484q-.952.953-1.9,1.906c-.5.5-.5.509,0,1.027.628.642,1.273,1.267,1.906,1.9a1.188,1.188,0,0,1,.433.727" transform="translate(-22.499 -26.476)" fill="#979797"/><path d="M59.5,48.155a1.291,1.291,0,0,1-.171.5q-1.491,2.986-2.986,5.97a2.057,2.057,0,0,1-.181.313.758.758,0,0,1-.965.245.667.667,0,0,1-.249-.9c.389-.941.869-1.839,1.325-2.749.595-1.187,1.188-2.375,1.791-3.558.265-.518.67-.659,1.094-.405a.659.659,0,0,1,.342.58" transform="translate(-30.608 -26.466)" fill="#979797"/><path d="M103.023,7.386a.658.658,0,0,1,.619.735.659.659,0,1,1-1.314-.086.623.623,0,0,1,.695-.649" transform="translate(-57.073 -4.119)" fill="#979797"/><path d="M96.355,8.116a.658.658,0,1,1-1.311-.085.578.578,0,0,1,.636-.591.629.629,0,0,1,.675.676" transform="translate(-53.01 -4.15)" fill="#979797"/><path d="M110.914,8.117a.635.635,0,0,1-.646.657.667.667,0,0,1-.67-.746.576.576,0,0,1,.638-.589.637.637,0,0,1,.678.677" transform="translate(-61.128 -4.15)" fill="#979797"/></g></svg>