<svg xmlns="http://www.w3.org/2000/svg" width="34.727" height="34.77" viewBox="0 0 34.727 34.77"><g transform="translate(-730.273 -893.907)"><path d="M432.307,52.84a17.179,17.179,0,0,1,3.4-10.263,1.191,1.191,0,0,1,2.1.1,1.1,1.1,0,0,1-.084,1.183,17.642,17.642,0,0,0-1.479,2.421,14.179,14.179,0,0,0-1.5,7.587,14.682,14.682,0,0,0,9.013,12.779,13.831,13.831,0,0,0,7.313,1.15,14.715,14.715,0,0,0,11.228-6.843,14.234,14.234,0,0,0,2.12-5.453,14.934,14.934,0,0,0,.134-4.334,14.51,14.51,0,0,0-2.56-6.795,15,15,0,0,0-14.355-6.3,15.493,15.493,0,0,0-3.92,1.087,1.2,1.2,0,1,1-.925-2.209,16.288,16.288,0,0,1,8.23-1.371,17.126,17.126,0,0,1,13.862,8.922,15.316,15.316,0,0,1,1.973,5.753,17.13,17.13,0,0,1-5.429,15.425,17.161,17.161,0,0,1-14.041,4.432,17.071,17.071,0,0,1-11.033-6.089,16.894,16.894,0,0,1-3.807-8.247,17.309,17.309,0,0,1-.237-2.94" transform="translate(297.967 858.396)" fill="#979797"/><path d="M545.19,107.254q0,1.971,0,3.942a1.2,1.2,0,1,1-2.391.019q0-4,0-8A1.183,1.183,0,0,1,543.982,102a1.2,1.2,0,0,1,1.208,1.234c0,1.339,0,2.679,0,4.018Z" transform="translate(203.648 801.636)" fill="#979797"/><path d="M543.211,189.2a1.607,1.607,0,0,1-3.213.053,1.607,1.607,0,0,1,3.213-.053" transform="translate(206.037 728.545)" fill="#979797"/></g></svg>