<svg xmlns="http://www.w3.org/2000/svg" xmlns:xlink="http://www.w3.org/1999/xlink" width="93.177" height="24.36" viewBox="0 0 93.177 24.36"><defs><clipPath id="a"><rect width="93.177" height="24.36" fill="#fff"/></clipPath></defs><g transform="translate(-1297.987 -25.11)"><g transform="translate(1297.987 25.11)"><path d="M8.143.133V4.424H15.6V24.37h5.219V4.424H28.25V.133Z" transform="translate(-0.638 -0.01)" fill="#fff"/><rect width="5.152" height="24.238" fill="#fff"/><rect width="8.268" height="5.149" transform="translate(23.477 10.435)" fill="#fff"/><g clip-path="url(#a)"><path d="M98.587.137V24.365H93.761V7.974c0-.47,0-1.128.01-1.982s.019-1.5.019-1.961L89.082,24.365H84.05L79.381,4.031c0,.461,0,1.118.01,1.961s.02,1.512.02,1.982V24.365H77.744l-.8-.609a2.029,2.029,0,0,1-.962-1.372,12.334,12.334,0,0,1-.136-2.256V18.5a7.749,7.749,0,0,0-.716-3.785A3.493,3.493,0,0,0,74.576,14c-.088-.088-.187-.177-.285-.265a2.977,2.977,0,0,0-.275-.216,4.66,4.66,0,0,0-.431-.285c-.059-.039-.118-.068-.177-.107-.225-.118-.461-.226-.706-.335.3-.108.618-.225.923-.363l.058-.029a7.005,7.005,0,0,0,1.286-.775c.018-.02.039-.029.058-.049a2.583,2.583,0,0,0,.255-.226,1.52,1.52,0,0,0,.147-.127c.069-.078.138-.157.2-.235a1.738,1.738,0,0,0,.128-.138c.058-.078.108-.166.157-.244a1.751,1.751,0,0,0,.108-.167c.059-.118.109-.236.157-.353a6.965,6.965,0,0,0,.736-3.042c0-.127-.01-.244-.01-.362a8.179,8.179,0,0,0-.108-.982,6.319,6.319,0,0,0-.235-.892,3.305,3.305,0,0,0-.109-.314,7.408,7.408,0,0,0-.716-1.314,7.6,7.6,0,0,0-.529-.726l-.02-.019a6.3,6.3,0,0,0-1.372-1.176.3.3,0,0,1-.069-.05,7.507,7.507,0,0,0-.794-.421.409.409,0,0,1-.068-.03A7.9,7.9,0,0,0,70.985.284,18.031,18.031,0,0,0,69.063.137H82.128L86.64,19.186,91.123.137Z" transform="translate(-5.41 -0.011)" fill="#fff"/><path d="M70.531,25.278c-.1-.371-.19-.7-.243-.954a11.239,11.239,0,0,1-.16-1.135c-.03-.316-.052-.634-.057-.957l-.033-2.253a5.881,5.881,0,0,0-.5-2.647,1.8,1.8,0,0,0-.32-.441,2.364,2.364,0,0,0-.91-.5,6.485,6.485,0,0,0-2.043-.276H61.572v9.5h9.052c-.036-.124-.062-.224-.093-.337" transform="translate(-4.823 -1.262)" fill="#fff"/><path d="M47.026,5.674l3.136,9.536H43.806ZM42.4,19.387h9.139l1.638,4.977h1.273V12.356L50.015.132H44.148L35.289,24.364h5.425Z" transform="translate(-2.764 -0.01)" fill="#fff"/><path d="M69.7,5.128A5.238,5.238,0,0,0,67.3,4.7H61.572v6.511h5.582c.129,0,.241-.007.363-.011a5.622,5.622,0,0,0,2.126-.382,2.713,2.713,0,0,0,1.475-2.733,4.153,4.153,0,0,0-.382-1.879A2.415,2.415,0,0,0,69.7,5.128" transform="translate(-4.823 -0.368)" fill="#fff"/></g></g></g></svg>