<svg xmlns="http://www.w3.org/2000/svg" width="1210.941" height="1210.941" viewBox="0 0 1210.941 1210.941"><path d="M515.471,1030.941a523.715,523.715,0,0,1-52.7-2.661,516.72,516.72,0,0,1-51.181-7.811c-16.606-3.4-33.227-7.672-49.4-12.7-15.991-4.974-31.926-10.806-47.359-17.334-15.292-6.468-30.452-13.771-45.059-21.706-14.5-7.879-28.8-16.566-42.5-25.82-13.631-9.209-26.982-19.193-39.683-29.674-12.669-10.456-24.985-21.649-36.606-33.269s-22.814-23.936-33.269-36.606c-10.481-12.7-20.465-26.052-29.674-39.683-9.253-13.7-17.94-28-25.82-42.5-7.935-14.607-15.238-29.768-21.706-45.06-6.528-15.434-12.36-31.368-17.334-47.359-5.03-16.173-9.3-32.793-12.7-49.4a516.752,516.752,0,0,1-7.811-51.181,523.185,523.185,0,0,1,0-105.408,516.754,516.754,0,0,1,7.811-51.181c3.4-16.606,7.672-33.227,12.7-49.4,4.974-15.991,10.806-31.926,17.334-47.359,6.468-15.292,13.771-30.452,21.706-45.059,7.879-14.5,16.566-28.8,25.82-42.5,9.209-13.631,19.193-26.982,29.674-39.683,10.456-12.669,21.649-24.985,33.269-36.606s23.936-22.814,36.606-33.269c12.7-10.481,26.051-20.465,39.683-29.674,13.7-9.253,28-17.94,42.5-25.82,14.607-7.935,29.768-15.238,45.059-21.706,15.434-6.528,31.368-12.36,47.359-17.334,16.173-5.03,32.794-9.3,49.4-12.7a516.754,516.754,0,0,1,51.181-7.811,523.185,523.185,0,0,1,105.408,0,516.752,516.752,0,0,1,51.181,7.811c16.606,3.4,33.227,7.672,49.4,12.7,15.992,4.974,31.926,10.806,47.359,17.334,15.292,6.468,30.452,13.771,45.06,21.706,14.5,7.879,28.8,16.566,42.5,25.82,13.631,9.209,26.982,19.193,39.683,29.674,12.669,10.456,24.985,21.649,36.606,33.269s22.814,23.936,33.269,36.606c10.481,12.7,20.465,26.051,29.674,39.683,9.253,13.7,17.94,28,25.82,42.5,7.935,14.607,15.238,29.768,21.706,45.059,6.528,15.434,12.36,31.368,17.334,47.359,5.03,16.173,9.3,32.794,12.7,49.4a516.72,516.72,0,0,1,7.811,51.181,523.184,523.184,0,0,1,0,105.408,516.718,516.718,0,0,1-7.811,51.181c-3.4,16.606-7.672,33.227-12.7,49.4-4.974,15.992-10.806,31.926-17.334,47.359-6.468,15.292-13.771,30.452-21.706,45.06-7.879,14.5-16.566,28.8-25.82,42.5-9.209,13.631-19.193,26.982-29.674,39.683-10.456,12.669-21.649,24.985-33.269,36.606s-23.936,22.814-36.606,33.269c-12.7,10.481-26.052,20.465-39.683,29.674-13.7,9.253-28,17.94-42.5,25.82-14.607,7.935-29.768,15.238-45.06,21.706-15.434,6.528-31.368,12.36-47.359,17.334-16.173,5.03-32.793,9.3-49.4,12.7a516.718,516.718,0,0,1-51.181,7.811A523.714,523.714,0,0,1,515.471,1030.941Zm0-732.509c-119.676,0-217.039,97.363-217.039,217.039S395.8,732.509,515.471,732.509s217.039-97.363,217.039-217.039S635.146,298.432,515.471,298.432Z" transform="translate(90 90)" fill="none" stroke="#4a90e2" stroke-miterlimit="10" stroke-width="180" opacity="0.05"/></svg>